<?xml version="1.0" encoding="utf-8"?>
<!-- Generator: Adobe Illustrator 24.2.1, SVG Export Plug-In . SVG Version: 6.00 Build 0)  -->
<svg version="1.1" id="Calque_1" xmlns="http://www.w3.org/2000/svg" xmlns:xlink="http://www.w3.org/1999/xlink" x="0px" y="0px"
	 viewBox="0 0 841.9 355.2" style="enable-background:new 0 0 841.9 355.2;" xml:space="preserve">
<style type="text/css">
	.st0{fill:#FFFFFF;}
</style>
<g>
	<g>
		<polygon class="st0" points="360.8,54.1 354.5,60.3 356,69.1 348.1,64.9 340.2,69.1 341.7,60.3 335.4,54.1 344.2,52.8 348.1,44.8 
			352,52.8 		"/>
		<polygon class="st0" points="397.3,54.1 390.9,60.3 392.4,69.1 384.5,64.9 376.6,69.1 378.1,60.3 371.8,54.1 380.6,52.8 
			384.5,44.8 388.5,52.8 		"/>
		<polygon class="st0" points="433.7,54.1 427.3,60.3 428.8,69.1 421,64.9 413.1,69.1 414.6,60.3 408.2,54.1 417,52.8 421,44.8 
			424.9,52.8 		"/>
		<polygon class="st0" points="470.1,54.1 463.7,60.3 465.2,69.1 457.4,64.9 449.5,69.1 451,60.3 444.6,54.1 453.4,52.8 457.4,44.8 
			461.3,52.8 		"/>
		<polygon class="st0" points="506.5,54.1 500.2,60.3 501.7,69.1 493.8,64.9 485.9,69.1 487.4,60.3 481,54.1 489.9,52.8 493.8,44.8 
			497.7,52.8 		"/>
	</g>
	<g>
		<polygon class="st0" points="198.4,295.5 208.6,295.5 208.6,286.3 212.2,286.3 212.2,309.9 208.6,309.9 208.6,298.9 198.4,298.9 
			198.4,309.9 194.8,309.9 194.8,286.3 198.4,286.3 		"/>
		<path class="st0" d="M240.9,298c-0.1,2.4,0.9,4.8,2.6,6.4c1.6,1.6,3.7,2.5,6,2.5c2.4,0,4.6-0.9,6.3-2.6c3.4-3.5,3.4-9.1,0-12.7
			c-3.4-3.4-9-3.4-12.4,0C241.7,293.4,240.8,295.7,240.9,298 M237.3,298c0-3.3,1.3-6.4,3.7-8.6c2.3-2.3,5.5-3.6,8.8-3.6
			c6.8,0.1,12.2,5.5,12.2,12.3c0.1,3.3-1.3,6.4-3.6,8.6c-4.7,4.6-12.1,4.7-17,0.4C238.7,304.8,237.2,301.5,237.3,298"/>
		<polygon class="st0" points="292.8,289.6 292.8,309.9 289.3,309.9 289.3,289.6 283.8,289.6 283.8,286.3 298.2,286.3 298.2,289.6 
					"/>
		<polygon class="st0" points="335.1,289.6 325.7,289.6 325.7,295.3 334.8,295.3 334.8,298.6 325.7,298.6 325.7,306.5 335.1,306.5 
			335.1,309.9 322.1,309.9 322.1,286.3 335.1,286.3 		"/>
		<polygon class="st0" points="364,286.3 364,306.5 371,306.5 371,309.9 360.5,309.9 360.5,286.3 		"/>
		<path class="st0" d="M424.8,306.5h1.6c1.4,0,2.7-0.1,4-0.5c3.4-1.1,5.6-4.4,5.5-8c0.1-2.4-0.9-4.7-2.6-6.3
			c-1.6-1.4-3.9-2.1-6.9-2.1h-1.6L424.8,306.5z M421.2,309.9v-23.6h5c1.9-0.1,3.8,0.2,5.6,0.7c1.5,0.5,2.9,1.3,4,2.3
			c4.8,4.4,5.1,11.9,0.7,16.7c-1.3,1.5-3,2.6-4.9,3.2c-1.8,0.5-3.7,0.7-5.5,0.6H421.2z"/>
		<path class="st0" d="M468.2,286.3v14.2c-0.1,1.6,0.2,3.1,1,4.5c1.8,2.3,5.1,2.7,7.4,0.9c0.3-0.3,0.7-0.6,0.9-0.9
			c0.8-1.3,1.1-2.9,1-4.5v-14.2h3.6v15.2c0.1,2.3-0.8,4.5-2.3,6.1c-3.5,3.5-9.2,3.6-12.7,0.1c0,0-0.1-0.1-0.1-0.1
			c-1.6-1.7-2.4-3.9-2.3-6.1v-15.2H468.2z"/>
		<path class="st0" d="M512,297.1h1.1c3.4,0,5.1-1.3,5.1-3.9c0-2.4-1.6-3.6-4.9-3.6H512V297.1z M516.4,299.8l7.3,10.1h-4.4l-6.8-9.7
			H512v9.7h-3.6v-23.6h4.2c3.1,0,5.4,0.6,6.8,1.8c1.5,1.3,2.4,3.2,2.3,5.2c0,1.6-0.5,3.1-1.4,4.3
			C519.3,298.7,517.9,299.5,516.4,299.8"/>
		<path class="st0" d="M551.5,306.5h2.2c1.3,0.1,2.5-0.2,3.5-0.9c0.8-0.6,1.2-1.6,1.2-2.6c0-1-0.4-1.9-1.1-2.6c-0.8-0.7-2.1-1-4-1
			h-1.8L551.5,306.5z M551.5,296.4h1.1c1,0.1,2.1-0.2,2.9-0.9c0.7-0.7,1-1.6,0.9-2.6c0.1-0.9-0.3-1.9-1-2.5
			c-0.8-0.6-1.8-0.9-2.8-0.9h-1.3L551.5,296.4z M548,309.9v-23.6h3.5c1.3,0,2.5,0.1,3.8,0.4c0.9,0.2,1.7,0.6,2.4,1.2
			c0.7,0.6,1.2,1.4,1.6,2.2c0.4,0.9,0.6,1.8,0.6,2.8c0,1.7-0.7,3.2-2,4.3c1.2,0.4,2.3,1.2,3,2.2c2,3.1,1.1,7.3-2,9.3
			c-0.5,0.3-1,0.5-1.5,0.7c-1.3,0.3-2.7,0.5-4,0.4L548,309.9z"/>
		<path class="st0" d="M590.7,286.3v14.2c-0.1,1.5,0.2,3.1,1,4.5c1.8,2.3,5.1,2.7,7.5,0.9c0.3-0.3,0.6-0.6,0.9-0.9
			c0.8-1.3,1.1-2.9,1-4.5v-14.2h3.6v15.2c0.1,2.3-0.8,4.5-2.3,6.1c-3.5,3.5-9.2,3.6-12.7,0.1c0,0-0.1-0.1-0.1-0.1
			c-1.6-1.7-2.4-3.9-2.3-6.1v-15.2H590.7z"/>
		<polygon class="st0" points="635.8,299.7 628,286.3 632.1,286.3 637.5,295.7 643,286.3 647.1,286.3 639.3,299.7 639.3,309.9 
			635.8,309.9 		"/>
	</g>
	<g>
		<path class="st0" d="M749,175.2c-1.2,0-1.1-0.8-1.1-1.5v-27c4,0,7.9-0.3,11.6,0.1c4.8,0.4,8.9,3.7,10.3,8.3
			c1.6,4.1,1.5,8.6-0.1,12.7c-1.8,4.5-5.4,6.7-10,7.2C756.2,175.3,752.6,175.1,749,175.2 M788,210.7c-5.5-7.9-11.1-15.8-16.6-23.7
			l-6.7-9.5c0.8-0.3,1.5-0.5,2.1-0.8c2.6-1.1,5.2-2.3,7.7-3.8c4.4-2.9,7.2-6.9,7.6-12.4c0.5-7.1-2.7-12.5-9.1-15.5
			c-3.2-1.4-6.7-2.2-10.2-2.2c-5.6-0.1-11.3,0-16.9-0.1c-2.8,0-5.5,0-8.4,0v33.4h-9.7v2.7h9.7v33.6h10.6v-33.6
			c4.5-0.8,5.3-0.5,7.7,3c6.8,9.9,13.5,19.9,20.3,29.8c0.2,0.4,0.7,0.9,1.1,0.9c3.8,0.1,7.6,0,11.7,0c-0.2-0.7-0.4-1.4-0.7-2"/>
		<path class="st0" d="M435.7,181.3c0,6.7,0,13.5-0.1,20.2c-0.1,0.7-0.4,1.3-0.9,1.8c-4.9,3.8-10.4,6.7-16.3,8.6
			c-11.5,3.4-22.3,1.9-31.9-5.2c-7.5-5.5-11.5-13.2-12.9-22.4c-1-6.5-0.4-13.2,2-19.4c4.8-12.4,13.5-20.4,26.8-22.6
			c8.1-1.3,15.7,0,22.5,4.8c5.8,4.1,9,9.6,9.3,16.7c0,0.2,0,0.5,0,0.8h-8c-0.2-1.7-0.3-3.3-0.5-4.8c-1.1-6.7-4.9-11.1-11.5-12.6
			c-7.3-1.7-14.5-1.2-21,3.1c-5.2,3.4-7.9,8.6-9,14.6c-1.5,8.2-0.6,16.7,2.6,24.4c4.2,10.2,13,17.8,25,17.9c4.1,0.1,8.1-0.5,12-1.9
			c0.4-0.2,1-0.7,1.1-1.1c0.1-6.8,0-13.7,0-20.7h-12.3c-0.1-0.2-0.2-0.4-0.2-0.6c-0.2-3-0.2-3,2.9-3c6.3,0,12.7,0,19,0
			C435.3,179.8,435.6,180.2,435.7,181.3"/>
		<path class="st0" d="M317.3,142.9h4.2v69.6c-0.9,0.1-1.9,0.1-2.8,0c-0.6-0.1-1.2-0.4-1.6-0.8c-7.5-8.1-15-16.3-22.4-24.5
			c-7.9-8.7-15.8-17.3-23.7-25.9c-0.2-0.2-0.3-0.5-0.5-0.8l-0.4,0.2v51.8h-4.3V143c1-0.1,2.1-0.1,3.2-0.1c0.6,0.1,1.1,0.4,1.5,0.8
			c5.7,6.2,11.3,12.4,17,18.6c6.7,7.3,13.4,14.7,20.1,22.1c2.8,3,5.5,6,8.2,9c0.4,0.5,0.9,0.9,1.6,1.7L317.3,142.9z"/>
		<path class="st0" d="M99.8,199.8c-1.5,4.8-5,8.1-9.4,10.4c-8.4,4.5-18.5,4.6-26.9,0.2c-6.6-3.2-10.7-10.1-10.3-17.5h8.3
			c0,0.8,0,1.6,0,2.4c-0.1,2.7,0.4,5.4,1.5,7.9c1.8,3.7,5.2,5.1,9,5.7c3.9,0.7,7.9,0.3,11.6-1.1c4-1.6,6.8-4.4,7.5-8.7
			c0.9-5.1-0.4-9.8-5-12.6c-3.4-2-6.9-3.6-10.6-5c-4.3-1.8-8.7-3.2-12.7-5.7c-8.7-5.5-9.9-17.6-4.5-25.1c4.7-6.4,11.2-8.9,18.8-8.8
			c5.6-0.1,11,1.8,15.4,5.3c4,3.2,6.2,8,6.1,13.1h-7.4c0-0.8,0-1.7,0-2.5c0.1-6-2.7-9.9-8.6-11.2c-4.5-1.2-9.3-0.4-13.2,2.1
			c-5.7,3.8-6.4,12.8-1.6,17.6c2.7,2.6,6,4.1,9.4,5.4c4.4,1.8,8.8,3.3,13.1,5.4C100,181.7,102.7,190.5,99.8,199.8"/>
		<path class="st0" d="M653.4,209h32.4v3.5h-43V143h40.7v3.4h-30c0,0.6-0.1,1-0.1,1.4c0,8,0,16,0,24c0,1.3,0.4,1.6,1.6,1.6
			c7,0,14,0,21,0h1.7v3.4h-22.8c-0.9,0-1.5-0.1-1.5,1.2c0,10.1,0,20.2,0,30.4C653.3,208.5,653.3,208.7,653.4,209"/>
		<polygon class="st0" points="497.8,209 529.2,209 529.2,212.5 487.2,212.5 487.2,143 497.8,143 		"/>
		<rect x="580.7" y="142.9" class="st0" width="10.6" height="69.6"/>
		<path class="st0" d="M210,203l-12-29c-4.1-9.9-8.2-19.7-12.2-29.6c-0.1-0.3-0.3-0.6-0.6-0.7c-1.5-0.7-3.3,0-4,1.5
			c-0.1,0.1-0.1,0.3-0.2,0.4c-2,4.7-4,9.4-5.9,14.1c-3.3,7.9-6.6,15.8-9.9,23.8c-0.6,1.5-1.2,2.9-1.9,4.4l-1.1,2.7
			c-2.3,5.5-4.6,11-6.9,16.5c-0.9,2.2-1.8,4.3-2.7,6.6h4c3-7.3,6-14.5,9-21.8l0.6-1.4l0,0l2.7-6.5c3.6-8.7,7.1-17.3,10.8-26.2
			l12.1,29l1.6,3.7l0.4,1c1,2.5,2.1,5,3.1,7.5l6.1,14.6h11.6C212.8,210,211.4,206.5,210,203"/>
	</g>
</g>
</svg>
