<svg height="14" viewBox="0 0 14 14" width="14" xmlns="http://www.w3.org/2000/svg"><path d="m14.5557622 13.4772032-3.4498819-3.4753903c-.129523-.13028423-.1424753-.33104392-.0422855-.48494699 1.4144669-2.16949988 1.0845643-5.15308602-1.0022791-6.93516161-2.00798671-1.7142668-5.06434747-1.65560079-7.00985842.13028428-2.23312811 2.04988215-2.28950869 5.53898653-.16837984 7.66162982 1.80874995 1.8102657 4.6083505 2.0300728 6.66433692.6700878.1542847-.1020941.35656907-.0887609.48685394.0422853l3.442263 3.4681522c.1489514.1497126.3904736.1500936.5398059.0007619l.5386631-.5390417c.1485705-.1485698.1489514-.389329.0007619-.5386607zm-10.59535855-4.18204913c-1.47199027-1.47312661-1.47199027-3.87005256 0-5.34317917 1.47199028-1.47312661 3.86702207-1.47350755 5.33901235 0 1.4719903 1.47312661 1.4719903 3.87005256 0 5.34317917-1.47199028 1.47312663-3.86702207 1.47312663-5.33901235 0z" fill="#141c26" fill-rule="evenodd" transform="translate(-1 -1)"/></svg>