<?xml version="1.0" encoding="UTF-8"?>
<svg width="32px" height="32px" viewBox="0 0 32 32" version="1.1" xmlns="http://www.w3.org/2000/svg" xmlns:xlink="http://www.w3.org/1999/xlink">
    <!-- Generator: Sketch 59.1 (86144) - https://sketch.com -->
    <title>icon-gallery</title>
    <desc>Created with Sketch.</desc>
    <g id="Desktop" stroke="none" stroke-width="1" fill="none" fill-rule="evenodd">
        <g id="Room---v2" transform="translate(-704.000000, -1820.000000)" stroke="#E2B477">
            <g id="Group" transform="translate(704.000000, 1820.000000)">
                <path d="M7.5,24.5 L0.5,24.5 L0.5,31.5 L7.5,31.5 L7.5,24.5 Z M19.5,24.5 L12.5,24.5 L12.5,31.5 L19.5,31.5 L19.5,24.5 Z M31.5,24.5 L24.5,24.5 L24.5,31.5 L31.5,31.5 L31.5,24.5 Z M31.5,12.5 L24.5,12.5 L24.5,19.5 L31.5,19.5 L31.5,12.5 Z M19.5,12.5 L12.5,12.5 L12.5,19.5 L19.5,19.5 L19.5,12.5 Z M7.5,12.5 L0.5,12.5 L0.5,19.5 L7.5,19.5 L7.5,12.5 Z M7.5,0.5 L0.5,0.5 L0.5,7.5 L7.5,7.5 L7.5,0.5 Z M19.5,0.5 L12.5,0.5 L12.5,7.5 L19.5,7.5 L19.5,0.5 Z M31.5,0.5 L24.5,0.5 L24.5,7.5 L31.5,7.5 L31.5,0.5 Z" id="icon-gallery"></path>
            </g>
        </g>
    </g>
</svg>