<svg viewBox="0 0 841.89 376.3" xmlns="http://www.w3.org/2000/svg"><g fill="#fff"><path d="m208.29 299.29h9.6v-8.71h3.36v22.26h-3.36v-10.4h-9.6v10.4h-3.36v-22.26h3.36z"/><path d="m248.35 301.65a8.06 8.06 0 0 0 2.47 6.07 8 8 0 0 0 5.7 2.38 8 8 0 0 0 5.91-2.42 8.64 8.64 0 0 0 0-11.94 8.3 8.3 0 0 0 -11.72 0 8 8 0 0 0 -2.39 5.91m-3.39 0a10.92 10.92 0 0 1 3.44-8.07 11.36 11.36 0 0 1 8.25-3.38 11.64 11.64 0 0 1 11.57 11.58 10.92 10.92 0 0 1 -3.43 8.14 11.77 11.77 0 0 1 -16.06.38 11 11 0 0 1 -3.77-8.65"/><path d="m297.28 293.74v19.1h-3.36v-19.1h-5.12v-3.16h13.58v3.16z"/><path d="m337.14 293.74h-8.92v5.34h8.66v3.16h-8.66v7.44h8.92v3.16h-12.28v-22.26h12.28z"/><path d="m364.4 290.58v19.1h6.54v3.16h-9.9v-22.26z"/><path d="m421.63 309.68h1.51a12.94 12.94 0 0 0 3.77-.47 8.16 8.16 0 0 0 2.73-13.44c-1.47-1.35-3.63-2-6.5-2h-1.51zm-3.36 3.16v-22.26h4.67a17.12 17.12 0 0 1 5.31.66 10.08 10.08 0 0 1 3.79 2.21 11.17 11.17 0 0 1 -3.92 18.77 17.38 17.38 0 0 1 -5.24.62z"/><path d="m462.55 290.58v13.42a7.4 7.4 0 0 0 .93 4.19 5 5 0 0 0 7.89 0 7.27 7.27 0 0 0 .93-4.19v-13.42h3.36v14.33a8 8 0 0 1 -2.19 5.79 8.46 8.46 0 0 1 -12.09 0 8 8 0 0 1 -2.19-5.79v-14.33z"/><path d="m503.84 300.8h1.07q4.77 0 4.77-3.64 0-3.42-4.64-3.42h-1.2zm4.18 2.55 6.89 9.49h-4.11l-6.35-9.11h-.61v9.11h-3.36v-22.26h3.94q4.41 0 6.37 1.66a6.09 6.09 0 0 1 2.16 4.87 6.36 6.36 0 0 1 -1.35 4.07 6 6 0 0 1 -3.58 2.17"/><path d="m541.1 309.68h2.07a5.22 5.22 0 0 0 3.35-.89 3.25 3.25 0 0 0 0-4.87c-.7-.65-1.95-1-3.76-1h-1.7zm0-9.54h1a3.91 3.91 0 0 0 2.75-.83 3.22 3.22 0 0 0 .87-2.44 3.06 3.06 0 0 0 -.9-2.39 3.72 3.72 0 0 0 -2.59-.81h-1.13zm-3.36 12.7v-22.26h3.34a14.61 14.61 0 0 1 3.56.35 5.44 5.44 0 0 1 2.27 1.16 6.13 6.13 0 0 1 1.48 2.12 6.34 6.34 0 0 1 .56 2.6 5.27 5.27 0 0 1 -1.83 4.05 5.36 5.36 0 0 1 2.8 2.12 6 6 0 0 1 1 3.49 5.93 5.93 0 0 1 -1.85 4.41 6.07 6.07 0 0 1 -2.49 1.54 14.43 14.43 0 0 1 -3.79.42z"/><path d="m578 290.58v13.42a7.4 7.4 0 0 0 .93 4.19 5 5 0 0 0 7.89 0 7.26 7.26 0 0 0 .94-4.19v-13.42h3.35v14.33a8 8 0 0 1 -2.11 5.79 8.46 8.46 0 0 1 -12.09 0 8 8 0 0 1 -2.19-5.79v-14.33z"/><path d="m620.47 303.22-7.27-12.64h3.87l5.08 8.9 5.11-8.9h3.86l-7.29 12.64v9.62h-3.36z"/><path d="m361.38 71.78-6 5.85 1.41 8.27-7.42-3.9-7.42 3.9 1.42-8.27-6-5.85 8.29-1.2 3.71-7.52 3.71 7.52z"/><path d="m395.71 71.78-6.01 5.85 1.42 8.27-7.42-3.9-7.42 3.9 1.42-8.27-6.01-5.85 8.3-1.2 3.71-7.52 3.71 7.52z"/><path d="m430.04 71.78-6.01 5.85 1.42 8.27-7.42-3.9-7.42 3.9 1.41-8.27-6-5.85 8.3-1.2 3.71-7.52 3.71 7.52z"/><path d="m464.36 71.78-6 5.85 1.41 8.27-7.42-3.9-7.42 3.9 1.42-8.27-6-5.85 8.29-1.2 3.71-7.52 3.71 7.52z"/><path d="m498.69 71.78-6 5.85 1.41 8.27-7.42-3.9-7.42 3.9 1.42-8.27-6.01-5.85 8.3-1.2 3.71-7.52 3.71 7.52z"/><path d="m727.16 185.9c-1.16 0-1-.72-1-1.43 0-5.31 0-10.62 0-15.93v-9.54a107.82 107.82 0 0 1 11 .07 11.23 11.23 0 0 1 9.75 7.85 16.48 16.48 0 0 1 -.09 11.93c-1.69 4.23-5.11 6.28-9.39 6.75-3.38.37-6.81.18-10.22.29m36.79 33.43q-7.82-11.17-15.68-22.33c-2.07-2.94-4.12-5.88-6.26-8.94.73-.27 1.36-.44 1.94-.71a56.62 56.62 0 0 0 7.2-3.55c4.11-2.73 6.78-6.5 7.13-11.65.45-6.68-2.53-11.8-8.6-14.61a23.82 23.82 0 0 0 -9.65-2.05c-5.31-.08-10.63 0-15.94 0-2.6 0-5.21 0-7.91 0v31.46h-9.23v2.54h9.17v31.63h10v-31.68c4.26-.79 5-.46 7.25 2.84q9.55 14 19.17 28c.25.35.67.82 1 .83 3.59.06 7.18 0 11 0a9.3 9.3 0 0 0 -.69-1.85"/><path d="m431.89 191.69c-.05 6.36 0 12.72-.06 19.07a2.5 2.5 0 0 1 -.89 1.7 46.78 46.78 0 0 1 -15.37 8.06c-10.8 3.16-21 1.78-30.08-4.94-7-5.18-10.86-12.47-12.16-21.08a35.45 35.45 0 0 1 1.84-18.31c4.49-11.71 12.68-19.23 25.29-21.27 7.6-1.24 14.83 0 21.24 4.51a19.42 19.42 0 0 1 8.78 15.75v.77h-7.59c-.17-1.57-.27-3.07-.52-4.55-1-6.28-4.59-10.48-10.79-11.93-6.9-1.61-13.68-1.15-19.8 2.88-4.92 3.24-7.47 8.08-8.45 13.74a41.1 41.1 0 0 0 2.48 23c3.94 9.63 12.24 16.76 23.57 16.9a31.67 31.67 0 0 0 11.29-1.77c.42-.16 1-.7 1-1.07.06-6.44 0-12.89 0-19.5h-11.62a2.22 2.22 0 0 1 -.2-.55c-.16-2.82-.16-2.82 2.68-2.82h17.93c1.15 0 1.44.34 1.43 1.45"/><path d="m320.38 155.49h3.93v65.59a17.81 17.81 0 0 1 -2.65 0 2.82 2.82 0 0 1 -1.52-.78q-10.58-11.51-21.1-23.06-11.18-12.24-22.34-24.48a3.39 3.39 0 0 1 -.42-.75l-.39.23v48.81h-4v-65.44a22.55 22.55 0 0 1 2.95-.1 2.38 2.38 0 0 1 1.39.74c5.35 5.83 10.65 11.7 16 17.54q9.48 10.41 19 20.79c2.58 2.84 5.15 5.68 7.74 8.52.41.45.84.89 1.49 1.58z"/><path d="m115.32 209.11c-1.39 4.49-4.72 7.66-8.84 9.78a27.1 27.1 0 0 1 -25.39.19 17.27 17.27 0 0 1 -9.68-16.49h7.82v2.26a16.3 16.3 0 0 0 1.4 7.46c1.73 3.5 4.91 4.86 8.52 5.36a21.18 21.18 0 0 0 10.89-1c3.81-1.5 6.36-4.14 7.06-8.2.84-4.85-.4-9.19-4.71-11.89a63.5 63.5 0 0 0 -10-4.74c-4.07-1.65-8.23-3-12-5.4-8.2-5.15-9.35-16.63-4.23-23.66 4.38-6 10.54-8.39 17.76-8.3a22.76 22.76 0 0 1 14.47 5 15.44 15.44 0 0 1 5.78 12.37h-7c0-.78 0-1.57 0-2.36.13-5.68-2.53-9.35-8.06-10.55a15.75 15.75 0 0 0 -12.41 2c-5.35 3.54-6.06 12.08-1.48 16.6 2.52 2.5 5.69 3.83 8.89 5.13 4.11 1.68 8.35 3.1 12.33 5 9.06 4.38 11.56 12.61 8.82 21.43"/><path d="m637.13 217.8h30.5v3.26h-40.5v-65.51h38.35v3.19h-28.35c0 .53-.1.94-.1 1.35v22.62c0 1.23.4 1.49 1.55 1.48h19.78 1.59v3.16h-21.5c-.81 0-1.45-.05-1.44 1.13v28.6a6.68 6.68 0 0 0 .09.74"/><path d="m490.47 217.81h29.58v3.26h-39.59v-65.54h10.01z"/><path d="m568.61 155.52h9.95v65.57h-9.95z"/><path d="m219.18 212.11q-5.66-13.7-11.32-27.37-5.76-14-11.53-27.9a1.3 1.3 0 0 0 -.6-.7 2.85 2.85 0 0 0 -3.91 1.78q-2.79 6.68-5.59 13.34-4.68 11.19-9.37 22.38c-.57 1.38-1.16 2.76-1.74 4.13l-1.07 2.54q-3.27 7.78-6.55 15.56c-.85 2-1.67 4.08-2.56 6.25h3.77c2.84-6.89 5.65-13.7 8.45-20.53l.54-1.28 2.55-6.15c3.36-8.18 6.7-16.3 10.13-24.67l11.45 27.31 1.47 3.51.39.95c.93 2.38 1.94 4.72 2.92 7.08 1.93 4.61 3.85 9.23 5.75 13.8h10.94c-1.4-3.41-2.75-6.72-4.12-10"/></g></svg>