<!-- SVG Sprite -->
<svg width="0" height="0" class="hidden">
  <symbol viewBox="0 0 24 24" xmlns="http://www.w3.org/2000/svg" id="animal">
    <title>Animal</title>
    <path
      d="M12.049 9.551c1.616 0 3.135 1.127 3.918 2.939.441.98.98 1.763 1.666 2.302.245.196.49.44.734.686 1.96 2.204 2.351 5.436.784 7.15-.637.735-1.567 1.127-2.547 1.127a4.525 4.525 0 0 1-1.91-.44c-1.47-.637-3.967-.637-5.388 0-1.665.734-3.38.49-4.457-.686-1.567-1.715-1.225-4.947.784-7.151.294-.294.587-.54.881-.784.686-.49 1.225-1.225 1.666-2.253.783-1.812 2.253-2.89 3.869-2.89zm0 .98c-1.225 0-2.351.881-2.988 2.302-.539 1.175-1.175 2.057-1.959 2.645a9.2 9.2 0 0 0-.735.685c-1.665 1.861-2.008 4.457-.734 5.829.734.832 2.057 1.028 3.33.44.833-.342 1.96-.538 3.086-.538 1.127 0 2.253.147 3.086.539 1.273.587 2.547.391 3.33-.441 1.225-1.372.833-3.968-.881-5.829a3.915 3.915 0 0 0-.637-.636c-.784-.637-1.42-1.519-1.91-2.645-.588-1.47-1.764-2.351-2.988-2.351zm8.033-3.674c.636-.343 1.273-.392 1.86-.147 1.52.539 2.205 2.645 1.568 4.751-.343 1.176-1.077 2.155-2.008 2.596a2.866 2.866 0 0 1-1.078.245 2.03 2.03 0 0 1-.783-.147c-1.519-.539-2.204-2.645-1.568-4.702l.074-.232c.368-1.072 1.066-1.952 1.935-2.364zM2.057 6.661c.588-.196 1.225-.147 1.861.147.931.441 1.666 1.372 2.009 2.596.636 2.106-.05 4.163-1.568 4.653a2.218 2.218 0 0 1-.783.147c-.343 0-.735-.049-1.078-.245-.93-.44-1.665-1.371-2.008-2.596-.637-2.057.049-4.114 1.567-4.702zm19.151.882c-.294 0-.49.049-.686.147-.685.343-1.224 1.077-1.518 2.008l-.05.196c-.353 1.5.09 2.955 1.03 3.33.392.147.832.05 1.077-.097.686-.343 1.225-1.078 1.519-2.009.49-1.518.049-3.134-.931-3.477-.147-.098-.294-.098-.44-.098zm-18.367-.05c-.147 0-.294.05-.441.099-.98.392-1.47 2.008-.98 3.526.294.931.833 1.666 1.519 2.009.245.146.637.244 1.126.049.98-.392 1.47-2.009.98-3.527l-.072-.211c-.306-.83-.814-1.48-1.446-1.797-.196-.05-.441-.147-.686-.147zM15.037.49c.685-.343 1.371-.343 2.057-.098 1.665.637 2.449 3.037 1.763 5.388-.392 1.371-1.224 2.498-2.253 2.987a2.608 2.608 0 0 1-1.175.294c-.294 0-.588-.049-.882-.147-1.665-.685-2.449-3.036-1.763-5.436C13.176 2.106 14.008.98 15.037.49zm-8.18.049C7.494.294 8.18.343 8.865.686c.98.49 1.862 1.616 2.253 2.938.735 2.303 0 4.605-1.665 5.241a2.288 2.288 0 0 1-.833.147c-.391 0-.783-.098-1.175-.294-.98-.49-1.861-1.616-2.253-2.938-.735-2.302 0-4.604 1.665-5.241zm9.355.685c-.294 0-.539.098-.734.196-.784.343-1.42 1.225-1.764 2.351-.538 1.813 0 3.772 1.176 4.213.49.196.98.049 1.273-.098.784-.343 1.42-1.225 1.764-2.351.538-1.813 0-3.772-1.176-4.213-.196-.049-.392-.098-.539-.098zm-8.473.147a1.74 1.74 0 0 0-.49.098c-1.127.392-1.665 2.253-1.078 4.017.343 1.077.98 1.959 1.764 2.35.343.148.783.295 1.273.099 1.127-.392 1.616-2.253 1.078-4.017-.343-1.077-.98-1.959-1.764-2.35a1.845 1.845 0 0 0-.783-.197z"
      fill-rule="evenodd"></path>
  </symbol>
  <symbol viewBox="0 0 24 24" xmlns="http://www.w3.org/2000/svg" id="area">
    <title>Superficie</title>
    <path
      d="M23.588 0c.227 0 .412.185.412.412v23.176a.412.412 0 0 1-.412.412H.412A.412.412 0 0 1 0 23.588l.002-.017L0 23.553V.412C0 .185.185 0 .412 0h23.176zm-2.981 23.178h2.57V14.14h-2.571v.136a.412.412 0 0 1-.823 0v-.136h-2.982a.412.412 0 0 1-.412-.412v-8.7c0-.228.185-.412.412-.412h2.277a.412.412 0 0 1 0 .823h-1.865v7.877h5.965V5.44h-.842a.412.412 0 0 1 0-.823h.842V.823H12.976v2.95a.412.412 0 0 1-.823 0V.824H.822v19.245h6.435a.412.412 0 0 1 0 .822H.822v2.288h11.331V20.89h-1.69a.412.412 0 0 1 0-.822h1.69V7.292a.412.412 0 1 1 .823 0v15.885h6.807v-.138a.412.412 0 0 1 .823 0v.138zm-.412-2.496a.41.41 0 0 1 .41.41v.974a.412.412 0 0 1-.822 0v-.974c0-.227.185-.41.412-.41zm0-1.948a.41.41 0 0 1 .41.412v.973a.412.412 0 0 1-.822 0v-.974c0-.227.185-.412.412-.412zm0-1.948c.227 0 .41.185.41.412v.974a.412.412 0 0 1-.822 0v-.974c0-.227.185-.41.412-.41v-.002zm0-1.947c.227 0 .41.185.41.412v.974a.412.412 0 0 1-.822 0v-.974c0-.227.185-.412.412-.412z"
      fill-rule="evenodd"></path>
  </symbol>
  <symbol viewBox="0 0 16 16" xmlns="http://www.w3.org/2000/svg" id="arrow">
    <title>Arrow</title>
    <path d="M7.63 0l8.349 7.201-.324.358.345.34L7.65 16l-.689-.679 7.506-7.284H0v-.956h14.362L6.982.717z"
          fill-rule="evenodd"></path>
  </symbol>
  <symbol viewBox="0 0 24 24" xmlns="http://www.w3.org/2000/svg" id="bed">
    <title>Double bed</title>
    <path
      d="M19.3 1.35c.3 0 .5.2.5.5v4.996l3.487 6.731A.48.48 0 0 1 23.5 14v5.15c0 .25-.25.5-.5.5l-2.7-.001v1.501c0 .3-.25.5-.5.5-.3 0-.5-.2-.5-.5v-1.501H4.7v1.501c0 .3-.2.5-.5.5s-.5-.2-.5-.5v-1.501L1 19.65c-.3 0-.5-.2-.5-.5l-.002-5.005a.455.455 0 0 1 .052-.395l3.6-6.953V1.85c0-.3.2-.5.5-.5H19.3zm3.2 13.15h-21v4.15h21V14.5zm-4.75-6.4c0 .25-.2.5-.5.5H13.3c-.3 0-.5-.2-.5-.5v-.65h-1.6v.65c0 .25-.2.5-.5.5H6.75c-.3 0-.5-.2-.5-.5v-.65H4.899L1.85 13.5h20.3l-3.121-6.05H17.75v.65zM10.2 6.35H7.25V7.6h2.95V6.35zm6.55 0H13.8V7.6h2.95V6.35zm2.1-4H5.15v4.1h1.1v-.6c0-.3.2-.5.5-.5h3.95c.3 0 .5.2.5.5v.6h1.6v-.6c0-.3.2-.5.5-.5h3.95c.3 0 .5.2.5.5v.6h1.1v-4.1z"
      fill-rule="evenodd"></path>
  </symbol>
  <symbol viewBox="0 0 16 16" xmlns="http://www.w3.org/2000/svg" id="calendar">
    <title>Calendar</title>
    <path
      d="M12 1c.4 0 .667.267.667.667l-.001.666H14c1.133 0 2 .867 2 2v9.334c0 1.133-.867 2-2 2H2c-1.133 0-2-.867-2-2V4.333c0-1.133.867-2 2-2h1.333v-.666C3.333 1.267 3.6 1 4 1s.667.267.667.667l-.001.666h6.667v-.666c0-.4.267-.667.667-.667zm2.666 6.666H1.333v6c0 .4.267.667.667.667h12c.4 0 .667-.266.667-.666l-.001-6.001zM4 11.333c.533 0 1 .467 1 1 0 .534-.467 1-1 1-.533 0-1-.466-1-1 0-.533.467-1 1-1zm2.667 0c.533 0 1 .467 1 1 0 .534-.467 1-1 1-.534 0-1-.466-1-1 0-.533.466-1 1-1zm2.666 0c.534 0 1 .467 1 1 0 .534-.466 1-1 1-.533 0-1-.466-1-1 0-.533.467-1 1-1zm2.667 0c.533 0 1 .467 1 1 0 .534-.467 1-1 1-.533 0-1-.466-1-1 0-.533.467-1 1-1zM4 8.667c.533 0 1 .466 1 1 0 .533-.467 1-1 1-.533 0-1-.467-1-1 0-.534.467-1 1-1zm2.667 0c.533 0 1 .466 1 1 0 .533-.467 1-1 1-.534 0-1-.467-1-1 0-.534.466-1 1-1zm2.666 0c.534 0 1 .466 1 1 0 .533-.466 1-1 1-.533 0-1-.467-1-1 0-.534.467-1 1-1zm2.667 0c.533 0 1 .466 1 1 0 .533-.467 1-1 1-.533 0-1-.467-1-1 0-.534.467-1 1-1zM3.333 3.666H2c-.4 0-.667.267-.667.667v2h13.333v-2c0-.4-.266-.666-.666-.666l-1.334-.001v.667c0 .4-.266.667-.666.667s-.667-.267-.667-.667v-.667H4.666v.667C4.667 4.733 4.4 5 4 5s-.667-.267-.667-.667v-.667z"
      fill-rule="evenodd"></path>
  </symbol>
  <symbol viewBox="0 0 24 24" xmlns="http://www.w3.org/2000/svg" id="check-in">
    <title>Check-in</title>
    <path
      d="M18.8,1.2 C20.344,1.2 21.6,2.4564 21.6,4 C21.6,4.8768 21.1944,5.66 20.5616,6.1736 C21.6324,6.5672 22.4,7.5944 22.4,8.8 L22.4,8.8 L22.4,15.6 L22.8,15.6 C23.4616,15.6 24,16.1384 24,16.8 L24,16.8 L24,21.2 C24,21.6536 23.744,22.0448 23.3716,22.2484 L23.3716,22.2484 L23.3788,22.2632 C23.5664,22.638 23.5468,23.0744 23.3264,23.4308 C23.106,23.7872 22.7244,24 22.3056,24 L22.3056,24 L21.6944,24 C21.2368,24 20.8256,23.7456 20.6212,23.3368 L20.6212,23.3368 L20.1528,22.4 L17.8472,22.4 L17.3788,23.3368 C17.174,23.7456 16.7632,24 16.3056,24 L16.3056,24 L15.6944,24 C15.2752,24 14.894,23.7872 14.6736,23.4312 C14.4748,23.11 14.4488,22.7256 14.5808,22.378 C14.024,22.2744 13.6,21.7868 13.6,21.2 L13.6,21.2 L13.6,16.8 C13.6,16.1384 14.1384,15.6 14.8,15.6 L14.8,15.6 L15.2,15.6 L15.2,12.7848 L14.5836,13.5248 C14.3316,13.8264 13.9612,14 13.568,14 C13.05,14 12.5904,13.7084 12.3708,13.2388 C12.1512,12.7692 12.2204,12.23 12.5524,11.832 L12.5524,11.832 L15.2076,8.6456 C15.27,7.5076 16.0136,6.55 17.0384,6.1736 C16.4056,5.66 16,4.8768 16,4 C16,2.4564 17.256,1.2 18.8,1.2 Z M16.9528,22.4 L15.4472,22.4 L15.3368,22.6208 C15.2464,22.8012 15.3188,22.9528 15.354,23.01 C15.3896,23.0672 15.4932,23.2 15.6944,23.2 L15.6944,23.2 L16.3056,23.2 C16.458,23.2 16.5952,23.1152 16.6632,22.9788 L16.6632,22.9788 L16.9528,22.4 Z M22.5528,22.4 L21.0472,22.4 L21.3368,22.9788 C21.4048,23.1152 21.542,23.2 21.6944,23.2 L21.6944,23.2 L22.3056,23.2 C22.5068,23.2 22.6104,23.0672 22.646,23.01 C22.6812,22.9532 22.7532,22.8012 22.6632,22.6212 L22.6632,22.6212 L22.5528,22.4 Z M23.2,20.4 L14.4,20.4 L14.4,21.2 C14.4,21.4208 14.5796,21.6 14.8,21.6 L14.8,21.6 L22.8,21.6 C23.0204,21.6 23.2,21.4208 23.2,21.2 L23.2,21.2 L23.2,20.4 Z M4.8,0 C6.1236,0 7.2,1.0764 7.2,2.4 C7.2,3.0192 6.9624,3.5828 6.5756,4.0088 C7.8172,4.0996 8.8,5.136 8.8,6.4 L8.8,6.4 L8.8,8 L10,8 C10.2208,8 10.4,8.1788 10.4,8.4 L10.4,8.4 L10.4,10.4 C10.4,10.6212 10.2208,10.8 10,10.8 L10,10.8 L9.2,10.8 L9.2,19.6 C9.2,19.8212 9.0208,20 8.8,20 L8.8,20 L4.52970994e-14,20 L4.52970994e-14,19.2 L8.4,19.2 L8.4,10.4 C8.4,10.1788 8.5792,10 8.8,10 L8.8,10 L9.6,10 L9.6,8.8 L4.52970994e-14,8.8 L4.52970994e-14,8 L0.8,8 L0.8,6.4 C0.8,5.136 1.7828,4.0996 3.0244,4.0088 C2.6376,3.5828 2.4,3.0192 2.4,2.4 C2.4,1.0764 3.4764,0 4.8,0 Z M23.2,18.4 L14.4,18.4 L14.4,19.6 L23.2,19.6 L23.2,18.4 Z M22.8,16.4 L14.8,16.4 C14.5796,16.4 14.4,16.5792 14.4,16.8 L14.4,16.8 L14.4,17.6 L23.2,17.6 L23.2,16.8 C23.2,16.5792 23.0204,16.4 22.8,16.4 L22.8,16.4 Z M19.6,6.8 L18,6.8 C16.8972,6.8 16,7.6972 16,8.8 L16,8.8 L16,15.6 L16.8,15.6 L16.8,15.2 C16.8,14.6792 17.1356,14.2392 17.6,14.0736 L17.6,14.0736 L17.6,9.6 C17.6,8.9384 18.1384,8.4 18.8,8.4 C19.4616,8.4 20,8.9384 20,9.6 L20,9.6 L20,14.0736 C20.4644,14.2392 20.8,14.6792 20.8,15.2 L20.8,15.2 L20.8,15.6 L21.6,15.6 L21.6,8.8 C21.6,7.6972 20.7028,6.8 19.6,6.8 L19.6,6.8 Z M19.6,14.8 L18,14.8 C17.7796,14.8 17.6,14.9792 17.6,15.2 L17.6,15.2 L17.6,15.6 L20,15.6 L20,15.2 C20,14.9792 19.8204,14.8 19.6,14.8 L19.6,14.8 Z M18.8,9.2 C18.5796,9.2 18.4,9.3792 18.4,9.6 L18.4,9.6 L18.4,14 L19.2,14 L19.2,9.6 C19.2,9.3792 19.0204,9.2 18.8,9.2 Z M15.2,9.9048 L13.1672,12.344 C13.0344,12.5036 13.0076,12.7112 13.0956,12.8996 C13.1836,13.0876 13.3604,13.2 13.568,13.2 C13.7236,13.2 13.8696,13.1316 13.9692,13.012 L13.9692,13.012 L15.2,11.5352 L15.2,9.9048 Z M6.4,4.8 L3.2,4.8 C2.3176,4.8 1.6,5.5176 1.6,6.4 L1.6,6.4 L1.6,8 L2.8,8 L2.8,6.4 L3.6,6.4 L3.6,8 L6,8 L6,6.4 L6.8,6.4 L6.8,8 L8,8 L8,6.4 C8,5.5176 7.2824,4.8 6.4,4.8 L6.4,4.8 Z M18.8,2 C17.6972,2 16.8,2.8972 16.8,4 C16.8,4.4136 16.926,4.798 17.142,5.1172 C17.4156,4.9884 17.6,4.7152 17.6,4.4 L17.6,4.4 L18.4,4.4 C18.4,4.928 18.1412,5.3964 17.7376,5.688 C18.0464,5.8828 18.4088,6 18.8,6 C19.9028,6 20.8,5.1028 20.8,4 C20.8,2.8972 19.9028,2 18.8,2 Z M11.36,0.08 C11.4812,-0.0112 11.6432,-0.0252 11.7788,0.042 C11.9144,0.11 12,0.2484 12,0.4 L12,0.4 L12,1.5468 L14.7504,1.2032 C14.8648,1.19 14.9792,1.2244 15.0648,1.3 C15.1508,1.376 15.2,1.4852 15.2,1.6 L15.2,1.6 L15.2,4.4 C15.2,4.5148 15.1508,4.624 15.0648,4.7 C14.9788,4.7756 14.8648,4.8108 14.7504,4.7968 L14.7504,4.7968 L12,4.4532 L12,5.6 C12,5.7572 11.9084,5.8992 11.7652,5.964 C11.7124,5.9884 11.656,6.00000183 11.6,6.00000183 C11.5048,6.00000183 11.4108,5.966 11.3364,5.9012 L11.3364,5.9012 L8.1364,3.1012 C8.0456,3.0216 7.9956,2.9056 8,2.7848 C8.0048,2.6644 8.0636,2.5524 8.16,2.48 L8.16,2.48 Z M11.2,1.2 L9.0348,2.824 L11.2,4.7184 L11.2,4 C11.2,3.8852 11.2492,3.776 11.3352,3.7 C11.4212,3.6244 11.5352,3.5908 11.6496,3.6032 L11.6496,3.6032 L14.4,3.9468 L14.4,2.0532 L11.6496,2.3968 C11.5352,2.4104 11.4212,2.3756 11.3352,2.3 C11.2492,2.224 11.2,2.1148 11.2,2 L11.2,2 L11.2,1.2 Z M4.8,0.8 C3.9176,0.8 3.2,1.5176 3.2,2.4 C3.2,3.2824 3.9176,4 4.8,4 C5.6824,4 6.4,3.2824 6.4,2.4 C6.4,1.5176 5.6824,0.8 4.8,0.8 Z"></path>
  </symbol>
  <symbol viewBox="0 0 24 24" xmlns="http://www.w3.org/2000/svg" id="check-out">
    <title>Check-out</title>
    <path
      d="M5.6,0 C6.9,0 8,1 8,2.3 C8,2.9 7.8,3.4 7.4,3.8 C8.6,3.9 9.6,4.9 9.6,6.1 L9.6,6.1 L9.6,7.7 L10.9,7.7 C11.1,7.7 11.3,7.9 11.3,8.1 L11.3,8.1 L11.3,10 C11.3,10.2 11.1,10.4 10.9,10.4 L10.9,10.4 L10.1,10.4 L10.1,14.5 L12.1,16.4 L13.1,15.4 C12.6,14.9 12.7,14.2 13.1,13.8 L13.1,13.8 L17.1,9.9 C17.4,9.4 17.9,8.9 18.4,8.7 C17.7,8.2 17.2,7.4 17.2,6.5 C17.2,5 18.5,3.8 20,3.8 C21.5,3.8 22.8,5 22.8,6.5 C22.8,7.4 22.3,8.2 21.6,8.7 C22.6,9.1 23.2,10 23.2,11.1 L23.2,11.1 L23.2,18 L23.8,21.9 C23.9,22.3 23.8,22.7 23.8,22.8 C23.5,23.1 23.1,23.3 22.7,23.3 C22,23.3 21.4,22.9 21.3,22.2 L21.3,22.2 L20.7,18.3 L19.8,18.3 L19.8,19.5 C19.8,19.6 19.7,19.6 19.7,19.7 L19.7,19.7 L17.5,22.9 C17.3,23.2 16.9,23.4 16.6,23.4 L16.6,23.4 L15.9,23.4 C15.7,23.4 15.5,23.4 15.4,23.3 C15.2,23.2 15,23 14.9,22.7 C14.8,22.4 14.8,22.1 15,21.9 L15,21.9 L16.9,19.1 L16.9,13.6 L14.9,15.5 C14.6,15.8 14.2,15.9 13.8,15.8 L13.8,15.8 L12.6,16.9 L12.7,17 C12.8,17.1 12.8,17.4 12.7,17.5 L12.7,17.5 L7.2,22.8 L7.2,23.4 L6.4,23.4 L6.4,22.8 L3.7,20.2 C3.6,20.1 3.6,19.8 3.7,19.7 L3.7,19.7 L4.2,19.2 L0,19.2 L0,18.4 L5,18.4 L9.2,14.4 L9.2,10 C9.2,9.8 9.4,9.6 9.6,9.6 L9.6,9.6 L10.4,9.6 L10.4,8.4 L0,8.4 L0,7.6 L1.6,7.6 L1.6,6.1 C1.6,4.9 2.6,3.9 3.8,3.8 C3.4,3.4 3.2,2.9 3.2,2.3 C3.2,1 4.3,0 5.6,0 Z M18.9,18.4 L17.7,18.4 L17.7,19.2 C17.7,19.3 17.6,19.3 17.6,19.4 L17.6,19.4 L15.6,22.3 L15.6,22.3 L15.600463,22.549537 C15.6027778,22.6305556 15.6166667,22.7 15.7,22.7 L15.7,22.7 L16.5,22.7 C16.6,22.7 16.7,22.7 16.7,22.6 L16.7,22.6 L18.8,19.5 L18.9,19.5 L18.9,18.4 Z M22.5,18.5 L21.3,18.5 L21.9,22.2 C22,22.5 22.2,22.7 22.5,22.7 C22.6,22.7 22.8,22.6 22.9,22.5 C23,22.3 23.1,22.2 23,22 L23,22 L22.5,18.5 Z M9.6,15.1 L5.5,19.1 L4.6,20 L6.8,22.1 L11.8,17.2 L9.6,15.1 Z M20.3,9.3 L19.5,9.3 C18.7,9.3 18,9.7 17.7,10.4 C17.7,10.5 17.6,10.7 17.6,10.8 L17.6,10.8 L17.6,17.7 L22.3,17.7 L22.3,11.2 C22.3,10.2 21.4,9.3 20.3,9.3 L20.3,9.3 Z M20,10.4 C20.7,10.4 21.2,10.9 21.2,11.6 L21.2,11.6 L21.2,15.4 C21.2,16.1 20.7,16.6 20,16.6 C19.3,16.6 18.8,16 18.8,15.4 L18.8,15.4 L18.8,11.6 C18.8,10.9 19.3,10.4 20,10.4 Z M20,11.2 C19.8,11.2 19.6,11.4 19.6,11.6 L19.6,11.6 L19.6,15.4 C19.6,15.6 19.8,15.8 20,15.8 C20.2,15.8 20.4,15.6 20.4,15.4 L20.4,15.4 L20.4,11.6 C20.4,11.4 20.2,11.2 20,11.2 Z M16.8,11.3 L13.6,14.3 C13.5,14.4 13.5,14.7 13.6,14.8 L13.6,14.8 L13.7,14.9 C13.9,15 14.1,15 14.3,14.9 L14.3,14.9 L16.8,12.5 L16.8,11.3 Z M20,4.6 C18.9,4.6 18,5.4 18,6.5 C18,7.6 18.9,8.4 20,8.4 C20.4,8.4 20.8,8.3 21.1,8.1 C20.7,7.9 20.4,7.4 20.4,6.9 L20.4,6.9 L21.2,6.9 C21.2,7.2 21.4,7.5 21.7,7.6 C21.9,7.3 22,6.9 22,6.5 C22,5.5 21.1,4.6 20,4.6 Z M7.2,4.6 L4,4.6 C3.1,4.6 2.4,5.3 2.4,6.1 L2.4,6.1 L2.4,7.6 L3.6,7.6 L3.6,6.1 L4.4,6.1 L4.4,7.6 L6.8,7.6 L6.8,6.1 L7.6,6.1 L7.6,7.7 L8.8,7.7 L8.8,6.1 C8.8,5.3 8.1,4.6 7.2,4.6 L7.2,4.6 Z M12.9,0.4 C13,0.3 13.2,0.3 13.3,0.4 L13.3,0.4 L16.5,2.7 C16.6,2.8 16.7,2.9 16.7,3 C16.7,3.1 16.7,3.2 16.6,3.3 L16.6,3.3 L13.4,6 C13.3,6.1 13.1,6.2 13,6.1 C12.9,6.1 12.8,6 12.8,5.8 L12.8,5.8 L12.8,4.7 L10,5 C9.9,5 9.8,5 9.7,4.9 C9.6,4.8 9.6,4.7 9.6,4.6 L9.6,1.9 C9.6,1.8 9.7,1.7 9.7,1.6 C9.8,1.5 9.9,1.5 10,1.5 L10,1.5 L12.7,1.8 L12.7,0.7 C12.7,0.6 12.8,0.5 12.9,0.4 Z M13.6,1.5 L13.6,2.3 C13.6,2.4 13.6,2.5 13.5,2.6 C13.4,2.7 13.3,2.7 13.2,2.7 L13.2,2.7 L10.4,2.4 L10.4,4.1 L13.2,3.8 C13.3,3.8 13.4,3.8 13.5,3.9 C13.5,4 13.6,4.1 13.6,4.2 L13.6,4.2 L13.6,4.9 L15.8,3.1 L13.6,1.5 Z M5.6,0.8 C4.7,0.8 4,1.5 4,2.3 C4,3.2 4.7,3.8 5.6,3.8 C6.5,3.8 7.2,3.1 7.2,2.3 C7.2,1.5 6.5,0.8 5.6,0.8 Z"
      fill-rule="evenodd"></path>
  </symbol>
  <symbol viewBox="0 0 16 16" xmlns="http://www.w3.org/2000/svg" id="close">
    <title>Menu/Close</title>
    <path
      d="M13.303 2.49l.707.707L8.707 8.5l5.303 5.303-.707.707L8 9.207 2.697 14.51l-.707-.707L7.293 8.5 1.99 3.197l.707-.707L8 7.793l5.303-5.303z"
      fill-rule="evenodd"></path>
  </symbol>
  <symbol viewBox="0 0 16 16" xmlns="http://www.w3.org/2000/svg" id="check">
    <title>Check</title>
    <path
      d="M11.014 4.535a.5.5 0 0 0-.683.18l-3.198 5.54-1.789-1.65a.5.5 0 0 0-.73.685L6.9 11.4a.5.5 0 0 0 .706.02c.062-.055 3.59-6.205 3.59-6.205a.497.497 0 0 0-.182-.68zM8 15A7 7 0 1 1 8.001.999 7 7 0 0 1 8 15zM8 0a8 8 0 0 0-8 8 8 8 0 0 0 8 8 8 8 0 0 0 8-8 8 8 0 0 0-8-8z"
      fill-rule="evenodd"></path>
  </symbol>
  <symbol viewBox="0 0 58 9" xmlns="http://www.w3.org/2000/svg" id="stars">
    <title>stars</title>
    <path
      d="M4.311 0l1.332 2.7 2.978.432-2.155 2.1.508 2.968-2.663-1.401-2.664 1.4.508-2.966L0 3.132 2.979 2.7 4.311 0zm12.321 0l1.333 2.7 2.978.432-2.155 2.1.509 2.968-2.665-1.401-2.663 1.4.508-2.966-2.155-2.101L15.3 2.7 16.632 0zm12.323 0l1.332 2.7 2.978.432-2.155 2.1.509 2.968-2.664-1.401-2.664 1.4.508-2.966-2.155-2.101 2.979-.432L28.955 0zm12.322 0l1.332 2.7 2.978.432-2.155 2.1.509 2.968-2.664-1.401-2.664 1.4.509-2.966-2.155-2.101 2.978-.432L41.277 0zm12.322 0l1.332 2.7 2.979.432-2.155 2.1.508 2.968L53.6 6.799l-2.666 1.4.51-2.966-2.156-2.101 2.979-.432L53.599 0z"
      fill-rule="evenodd"></path>
  </symbol>
  <symbol viewBox="0 0 16 16" xmlns="http://www.w3.org/2000/svg" id="cross">
    <title>Cross</title>
    <path
      d="M8 15A7 7 0 1 1 8.001.999 7 7 0 0 1 8 15zM8 0C3.582 0 0 3.58 0 8s3.582 8 8 8 8-3.58 8-8-3.582-8-8-8zm2.858 5.14a.507.507 0 0 0-.712 0L7.997 7.29 5.879 5.17a.5.5 0 1 0-.707.71L7.29 7.995 5.157 10.13a.507.507 0 0 0 0 .715.508.508 0 0 0 .713 0L8.003 8.71l2.118 2.12a.501.501 0 1 0 .707-.71L8.71 8.005l2.148-2.15a.507.507 0 0 0 0-.715z"
      fill-rule="evenodd"></path>
  </symbol>
  <symbol viewBox="0 0 16 16" xmlns="http://www.w3.org/2000/svg" id="gift">
    <title>Gift</title>
    <path
      d="M10 0c1.467 0 2.667 1.2 2.667 2.667 0 .485-.132.94-.36 1.334L15.332 4c.4 0 .667.267.667.667v2.666c0 .4-.267.667-.667.667v7.333c0 .4-.266.667-.666.667H1.333c-.4 0-.666-.267-.666-.667V8C.267 8 0 7.733 0 7.333V4.667C0 4.267.267 4 .667 4h3.027a2.644 2.644 0 0 1-.36-1.333A2.673 2.673 0 0 1 6 0c.794 0 1.51.352 2 .908A2.66 2.66 0 0 1 10 0zM7.333 8H2v6.667l5.333-.001V8zM14 8H8.666v6.666H14V8zM7.333 5.333h-6v1.334l6-.001V5.333zm7.334 0H8.666v1.333h6V5.334zM6 1.333c-.733 0-1.333.6-1.333 1.334C4.667 3.4 5.267 4 6 4h1.333V2.667c0-.734-.6-1.334-1.333-1.334zm4 0c-.69 0-1.262.532-1.327 1.206l-.006.128L8.666 4H10c.733 0 1.333-.6 1.333-1.333 0-.734-.6-1.334-1.333-1.334z"
      fill-rule="evenodd"></path>
  </symbol>
  <symbol viewBox="0 0 24 24" xmlns="http://www.w3.org/2000/svg" id="persons">
    <title>Persons</title>
    <path
      d="M13.3 9c1.426 0 2.684.756 3.392 1.887A4.1 4.1 0 0 1 19.6 9.65c2.3 0 4.15 1.85 4.15 4.15v5.1c0 .3-.2.5-.5.5l-5.95-.001v2.051c.05.3-.2.5-.45.5H6.9c-.3 0-.5-.2-.5-.5v-2.051L.75 19.4c-.3 0-.5-.2-.5-.5v-5.1c0-2.3 1.85-4.15 4.15-4.15a4.14 4.14 0 0 1 2.744 1.034A4 4 0 0 1 10.4 9h2.9zm0 1h-2.9c-1.65 0-3 1.35-3 3l.002 5.666a.555.555 0 0 1 0 .449L7.4 20.95h8.9V13c0-1.65-1.35-3-3-3zm6.3.65c-.95 0-1.8.4-2.4 1.15l-.067.058c.109.362.167.746.167 1.142v5.399l5.45.001v-4.6c0-1.7-1.4-3.15-3.15-3.15zm-15.15 0c-1.7 0-3.15 1.4-3.15 3.15v4.6l5.1-.001V13c0-.494.09-.968.257-1.406-.582-.581-1.354-.944-2.207-.944zM4.4 4c1.4 0 2.5 1.1 2.5 2.5S5.75 9 4.4 9 1.9 7.9 1.9 6.5 3 4 4.4 4zm15.2 0c1.4 0 2.5 1.1 2.5 2.5S21 9 19.6 9c-1.35 0-2.5-1.1-2.5-2.5S18.2 4 19.6 4zm-7.7-1.9c1.75 0 3.2 1.45 3.2 3.2 0 1.75-1.45 3.2-3.2 3.2-1.8 0-3.2-1.45-3.2-3.2 0-1.8 1.45-3.2 3.2-3.2zM4.4 5.05c-.8 0-1.5.65-1.5 1.5 0 .8.65 1.5 1.5 1.5s1.5-.65 1.5-1.5c-.05-.85-.7-1.5-1.5-1.5zm15.2 0c-.8 0-1.5.65-1.5 1.5 0 .8.65 1.5 1.5 1.5s1.5-.65 1.5-1.5-.65-1.5-1.5-1.5zm-7.7-2c-1.2 0-2.2 1-2.2 2.2 0 1.2 1 2.2 2.2 2.2 1.2 0 2.2-1 2.2-2.2 0-1.2-1-2.2-2.2-2.2z"
      fill-rule="evenodd"></path>
  </symbol>
  <symbol viewBox="0 0 24 24" xmlns="http://www.w3.org/2000/svg" id="wifi">
    <title>WIFI</title>
    <path
      d="M12 19.45c1.2 0 2.2 1 2.2 2.2 0 1.2-1 2.2-2.2 2.2-1.2 0-2.2-1-2.2-2.2 0-1.2 1-2.2 2.2-2.2zm0 1c-.65 0-1.2.55-1.2 1.2 0 .65.55 1.2 1.2 1.2.65 0 1.2-.55 1.2-1.2 0-.65-.55-1.2-1.2-1.2zm5.15-4.05c.2.2.2.5 0 .7-.05.1-.2.15-.35.15-.15 0-.25-.05-.35-.15-2.45-2.45-6.45-2.45-8.95 0-.2.2-.5.2-.7 0-.2-.2-.2-.5 0-.7 2.85-2.85 7.5-2.85 10.35 0zM12 9.95c3.1 0 6.05 1.2 8.25 3.4.2.2.2.5 0 .7-.1.1-.25.15-.35.15-.15 0-.25-.05-.35-.15-2-2-4.7-3.1-7.55-3.1-2.85 0-5.5 1.1-7.55 3.1-.2.2-.5.2-.7 0-.2-.2-.2-.5 0-.7 2.2-2.2 5.15-3.4 8.25-3.4zm0-4.8c4.4 0 8.5 1.7 11.6 4.8.2.2.2.5 0 .7-.2.2-.5.2-.7 0-2.9-2.9-6.8-4.5-10.9-4.5-4.1 0-8 1.6-10.9 4.5-.1.1-.2.15-.35.15-.15 0-.25-.05-.35-.15-.2-.2-.2-.5 0-.7 3.1-3.1 7.2-4.8 11.6-4.8z"
      fill-rule="evenodd"></path>
  </symbol>
  <symbol viewBox="0 0 8 16" xmlns="http://www.w3.org/2000/svg" id="facebook">
    <title>Facebook</title>
    <path
      d="M1.637 3.092V5.29H.026v2.688h1.61v7.99h3.308v-7.99h2.22s.208-1.289.309-2.698H4.958V3.442c0-.274.36-.644.716-.644h1.804V0H5.026c-3.472 0-3.39 2.69-3.39 3.092z"
      fill-rule="evenodd"></path>
  </symbol>
  <symbol viewBox="0 0 16 16" xmlns="http://www.w3.org/2000/svg" id="instagram">
    <title>Instagram</title>
    <path
      d="M11.214 0a4.763 4.763 0 0 1 4.758 4.758v6.456a4.763 4.763 0 0 1-4.758 4.758H4.758A4.763 4.763 0 0 1 0 11.214V4.758A4.763 4.763 0 0 1 4.758 0zm0 1.606H4.758a3.152 3.152 0 0 0-3.152 3.152v6.456a3.153 3.153 0 0 0 3.152 3.152h6.456a3.152 3.152 0 0 0 3.152-3.152V4.758a3.153 3.153 0 0 0-3.152-3.152zm-3.228 2.25a4.137 4.137 0 0 1 4.132 4.13 4.136 4.136 0 0 1-4.132 4.13 4.136 4.136 0 0 1-4.13-4.13 4.136 4.136 0 0 1 4.13-4.13zm0 1.606a2.524 2.524 0 1 0 0 5.048 2.524 2.524 0 0 0 0-5.048zm4.139-2.565a.99.99 0 1 1 0 1.979.99.99 0 0 1 0-1.98z"
      fill-rule="evenodd"></path>
  </symbol>
  <symbol viewBox="0 0 24 16" xmlns="http://www.w3.org/2000/svg" id="tripadvisor">
    <title>Trip Advisor</title>
    <path
      d="M14.707.731c.67.098 1.326.273 1.974.48 1.132.362 2.2.865 3.204 1.517.07.045.163.073.245.073 1.18.006 2.358.004 3.537.005.095 0 .19.01.284.016 0 .024.003.034 0 .04l-.166.262c-.4.637-.742 1.304-.944 2.04-.022.08-.027.146.025.224 1.05 1.566 1.385 3.285.946 5.138-.385 1.625-1.282 2.892-2.645 3.79a5.767 5.767 0 0 1-3.2.953 5.394 5.394 0 0 1-1.436-.191 5.98 5.98 0 0 1-2.947-1.807c-.107-.118-.208-.242-.322-.376l-1.286 1.99-1.264-1.962c-.028.016-.037.018-.042.023a.2.2 0 0 0-.025.028c-.983 1.205-2.219 1.943-3.725 2.19a5.61 5.61 0 0 1-2.48-.144 5.888 5.888 0 0 1-2.925-1.893A6.244 6.244 0 0 1 .08 9.954C-.127 8.832.125 7.75.188 7.486a6.39 6.39 0 0 1 .935-2.11.252.252 0 0 0 .027-.18C.972 4.517.666 3.902.307 3.312c-.09-.15-.2-.289-.3-.433v-.05c.02.003.04.007.06.007 1.206 0 2.413 0 3.62-.002a.299.299 0 0 0 .155-.052 12.804 12.804 0 0 1 2.7-1.361A14.245 14.245 0 0 1 8.64.832c.69-.139 1.383-.236 2.084-.284 1.71-.137 3.075.05 3.984.183zm3.175 3.322c-2.616.057-4.664 2.247-4.688 4.955 0 2.752 2.15 5 4.79 4.99 2.651-.01 4.791-2.195 4.79-4.977-.002-2.868-2.242-5.023-4.892-4.968zM6.009 4.035C3.43 4.01 1.184 6.245 1.229 9.09c.041 2.654 2.148 4.904 4.833 4.88 2.626-.023 4.737-2.25 4.741-4.947.005-2.77-2.132-4.99-4.794-4.99zm11.994 2.004a3.218 3.218 0 0 1 3.228 3.22c0 1.79-1.42 3.175-3.095 3.239a3.233 3.233 0 0 1-3.367-3.232c.002-1.83 1.51-3.257 3.234-3.227zm-11.996 0A3.216 3.216 0 0 1 9.23 9.262a3.23 3.23 0 1 1-6.462.001C2.773 7.42 4.291 6.008 6.007 6.04zm1.035 1.395l.059.071A1.384 1.384 0 0 1 6 9.731a1.365 1.365 0 0 1-1.386-1.393c0-.344.12-.654.32-.892a2.128 2.128 0 0 0-1.048 1.82 2.13 2.13 0 0 0 2.116 2.113c1.153.003 2.107-.959 2.105-2.12a2.097 2.097 0 0 0-1.066-1.825zm11.994-.007l.07.085a1.388 1.388 0 0 1-1.096 2.219 1.378 1.378 0 0 1-1.395-1.372 1.41 1.41 0 0 1 .331-.917 2.109 2.109 0 0 0-1.057 1.816 2.128 2.128 0 0 0 2.108 2.12 2.115 2.115 0 0 0 1.04-3.951zm-12.79-4.69c1.456.092 2.735.619 3.816 1.64 1.078 1.018 1.71 2.289 1.94 3.783.236-1.477.851-2.736 1.91-3.744 1.06-1.01 2.322-1.54 3.754-1.651-1.7-.785-3.492-1.118-5.337-1.155-2.096-.043-4.135.278-6.083 1.126z"
      fill-rule="evenodd"></path>
  </symbol>
  <symbol viewBox="0 0 32 32" xmlns="http://www.w3.org/2000/svg" id="gallery">
    <title>Gallery</title>
    <path d="M7.5,24.5 L0.5,24.5 L0.5,31.5 L7.5,31.5 L7.5,24.5 Z M19.5,24.5 L12.5,24.5 L12.5,31.5 L19.5,31.5 L19.5,24.5 Z M31.5,24.5 L24.5,24.5 L24.5,31.5 L31.5,31.5 L31.5,24.5 Z M31.5,12.5 L24.5,12.5 L24.5,19.5 L31.5,19.5 L31.5,12.5 Z M19.5,12.5 L12.5,12.5 L12.5,19.5 L19.5,19.5 L19.5,12.5 Z M7.5,12.5 L0.5,12.5 L0.5,19.5 L7.5,19.5 L7.5,12.5 Z M7.5,0.5 L0.5,0.5 L0.5,7.5 L7.5,7.5 L7.5,0.5 Z M19.5,0.5 L12.5,0.5 L12.5,7.5 L19.5,7.5 L19.5,0.5 Z M31.5,0.5 L24.5,0.5 L24.5,7.5 L31.5,7.5 L31.5,0.5 Z" fill-rule="evenodd"></path>
  </symbol>
  <symbol viewBox="0 0 73 36" xmlns="http://www.w3.org/2000/svg" id="sanglier-sigle">
    <title>Canglier sigle</title>
    <path
      d="M37.915 0l.265.174.28.174.278.15.282.15.286.122.294.12.296.11.311.094.3.078.308.073.312.057.33.047.317.033.326.016.332.007.34-.007.2-.012.226-.014.257-.01.291-.013.308-.027.348-.012.373-.026.394-.014.374-.006.378.006.37.014.371.033.357.032.36.05.344.062.357.074.17-.17.183-.145.181-.15.205-.129.198-.123.218-.108.22-.103.227-.086.226-.085.236-.07.248-.063.258-.044.252-.046.268-.026.275-.02h.285l.008.238.02.13.031.144.03.134.033.15.09.314.108.327.057.178.075.185.158.38.183.407.36.121.364.143.352.143.36.161.344.16.348.184.331.184.34.197.32.204.328.216.317.222.318.24.302.235.31.26.297.264.304.28.058-.228.021-.12v-.032l.005-.022.008-.053.021-.234-.006-.23-.043-.247-.025-.123-.023-.113-.079-.243-.05-.126-.054-.115.134.091.151.107.13.117.144.13.124.131.138.144.128.16.126.163.116.171.125.176.237.398.101.197.113.22.102.225.113.237.094-.109.101-.087.107-.085.12-.07.11-.075.123-.049.123-.05.137-.03.132-.036.14-.018.141-.013.156.004.317.021.335.071-.17.1-.155.12-.15.121-.129.137-.13.134-.108.148-.112.15-.09.161-.108.161-.07.175-.08.174-.056.193-.054.19-.04.206-.04.202-.019.218.288.465.29.453.298.433.3.41.29.386.302.38.311.347.307.333.304.305.312.29.308.268.32.252.316.225.321.216.32.194.326.173.322.141.327.13.328.11.333.097.333.063.33.053.34.031.344.012.34-.012.352-.03.342-.054.353-.063.345-.098.356-.11.361-.129.365-.14.054.031.065.056.075.067.081.083.075.08.08.104.067.107.076.121.065.12.074.15.062.14.072.163.06.164.067.185.058.183.062.196.052.204.063.224.1.464.048.24.05.261.04.26.05.277.045.282.047.304.076.615.07.662.038.335.036.356.028.36.04.381-.32.251-.32.258-.649.501-.654.493-.177.114-.087.06-.079.064-.338.243-.339.233-.173.12-.087.056-.08.063-.099.053-.08.057-.174.116-.342.233-.71.45-.365.218-.362.226-.373.207-.365.213-.378.207-.37.213-.388.201-.37.205-.775.398-.39.19-.388.19-.209.092-.192.098-.395.194-.413.176-.203.093-.197.098-.21.082-.204.093-.407.18.254.166.278.16.133.071.153.08.3.14.145.057.164.066.328.122.337.113.358.1.367.086.181.033.201.036.386.063.417.061.411.045.44.03.45.023.466.015.32.205.32.211.307.226.315.238.3.238.291.265.292.264.288.288.275.29.275.303.264.312.27.325.253.333.252.346.24.356.25.372-.226.143-.22.136-.227.128-.207.121-.219.11-.213.106-.223.088-.212.085-.22.073-.209.064-.432.101-.432.066-.21.02-.208.01-.429-.01-.22-.02-.213-.025-.214-.04-.215-.047-.413-.116-.218-.076-.207-.085-.425-.194-.205-.11-.213-.112-.209-.13-.203-.137-.635-.217-.62-.203-.613-.197-.59-.174-.585-.174-.562-.158-.557-.143-.533-.13-.529-.138-.516-.11-.502-.107-.485-.087-.475-.083-.463-.066-.448-.056-.429-.047-.427-.042-.407-.02-.399-.019h-.378l-.376.007-.356.016-.339.037-.322.044-.319.045-.299.064-.29.07-.269.09-.269.1-.246.105-.24.122-.217.14.02.048.042.053.054.05.071.051.081.055.09.051.104.05.116.065.125.052.142.052.157.051.164.052.175.052.2.051.2.05.21.061-.517.035-.497.03h-.502l-.486-.022-.488-.043-.475-.066-.478-.088-.46-.112-.003.155-.009.167-.022.168-.02.165-.063.235-.087.24-.124.256-.15.272-.169.271-.196.27-.016-.379-.014-.375-.043-.376-.036-.372-.077-.375-.08-.373-.1-.376-.105-.376-.135-.37-.144-.375-.159-.372-.169-.376-.2-.376-.208-.37-.219-.377-.238-.367h-.132l-.136.007-.074-.007h-.203l-.154-.014-.15-.01-.083-.013-.068-.008-.157-.012-.085-.019-.082-.015-.084-.017-.082-.012-.177-.043-.08-.019-.083-.012-.178-.053-.09-.023-.094-.02-.184-.05-.18-.052-.2-.073-.2-.065-.104-.039-.095-.028-.197-.074-.115-.043-.1-.04-.215-.083-.218-.093-.108-.045-.1-.035-.233-.104-.117-.05-.114-.046-.229-.113-.228-.102-.246-.115-.237-.117-.25-.119-.245-.126-.305-.166-.297-.156-.288-.154-.273-.142-.523-.28-.478-.25-.237-.13-.218-.116-.215-.114-.198-.104-.375-.199-.339-.178-.58-.3-.55-.286-.535-.259-.258-.13-.242-.118-.257-.123-.238-.107-.462-.215-.446-.202-.414-.172-.59-.239-.573-.21-.569-.203-.55-.164-.55-.158-.535-.13-.518-.108-.515-.087-.512-.077-.488-.043-.489-.033h-.469l-.464.01-.45.035-.443.053-.428.083-.549.114-.519.163-.528.19-.505.23-.506.248-.489.301-.486.324-.463.358-.468.387-.453.427-.443.46-.425.497-.428.52-.407.56-.408.593-.392.63-.083-.15-.07-.139-.062-.154-.039-.149-.046-.162-.02-.162-.017-.166.01-.17.004-.178.015-.178.03-.189.04-.19.044-.197.071-.194.064-.204.091-.203-.08.04-.074.044-.146.094-.152.076-.159.077-.164.065-.16.064-.173.053-.166.048-.185.04-.183.041-.184.025-.18.022-.2.017-.199.012h-.105l-.096.004-.197.008.17-.053.171-.054.04-.028.017-.016.027-.002.086-.04.037-.024.014-.015.028-.008.086-.043.072-.06.038-.034.042-.022.166-.126.144-.14.076-.078.08-.076-.625.014-.306.014-.297.023-.592.058-.29.042-.28.051-.286.044-.27.056-.538.14-.519.16-.503.193-.178.061-.175.08-.178.076-.175.088-.359.183-.353.21-.195.1-.186.114-.189.118-.184.13-.382.26-.198.142-.194.148-.227.153-.203.151-.204.138-.186.136-.177.123-.167.124-.164.106-.142.108-.14.094-.13.081-.122.076-.104.075-.108.058-.08.06-.08.041-.063.042-.085.031-.079.04-.158.07-.322.13-.09.017-.077.028-.163.045-.32.077-.332.04-.174.012-.16.003-.17-.003-.087-.009H2.89l-.333-.025.022-.396.052-.379.062-.38.093-.358.104-.362.13-.35.142-.348.166-.334.178-.337.204-.322.218-.324.236-.302.26-.307.274-.294.294-.285.322-.282.274-.07.27-.07.262-.086.256-.076.248-.097.247-.09.234-.105.243-.1.22-.119.227-.116L8 23.87l.105-.065.113-.055.195-.143.202-.135.092-.077.096-.068.19-.147.177-.16.17-.16.16-.172.168-.169.143-.186.154-.184.14-.193.032-.053.033-.043.077-.09.121-.203.127-.207.115-.224.026-.055.032-.052.058-.103.1-.226.051-.116.028-.059.031-.052.013-.065.03-.057.044-.118.093-.233.201-.043.201-.036.197-.049.204-.035.187-.063.19-.047.185-.06.192-.05.175-.073.178-.066.082-.038.085-.032.173-.068.157-.085.167-.077.074-.046.082-.039.162-.075.063-.056.074-.042.15-.088.146-.107.144-.097.062-.057.07-.052.137-.1.126-.118.063-.062.071-.048.05-.062.065-.062.121-.119.114-.133.054-.062.062-.059.05-.07.055-.065.104-.13.098-.142.051-.067.058-.068.058-.35.084-.335.101-.335.127-.32.135-.33.158-.316.181-.315.197-.303.21-.31.234-.295.247-.298.27-.285.285-.28.308-.279.328-.28.353-.26.36-.028.354-.033.36-.039.364-.04.714-.113.36-.063.37-.074.714-.182.356-.097.37-.1.715-.237.723-.253.721-.297.713-.324.357-.17.361-.182.36-.189.37-.195.355-.205.36-.209.355-.224.36-.228.715-.475.362-.242.37-.255.197-.153.21-.153.436-.336.454-.362.236-.194.25-.187.485-.414.252-.216.267-.212.258-.237.272-.228.271-.24.284-.236.231-.216.217-.195.203-.184.201-.17.181-.162.178-.145.164-.137.156-.123.144-.12.127-.104.122-.098.116-.077.092-.074.095-.054.075-.053.071-.032-.178-.07-.09-.03-.095-.022-.21-.03-.238-.02-.263-.007-.286.006-.155.006-.153.022-.333.045.168-.099.185-.083.164-.087.172-.068.334-.129.326-.1.31-.08.15-.036.155-.018.297-.025.141-.008.146.008.272.014.265.043.125.03.127.033.13.048.124.058.238.117.104.062.123.08.106.078.11.09.208.19-.185.033-.178.046-.193.05-.183.074-.198.064-.189.081-.2.092-.194.101-.209.107-.203.112-.218.126-.207.141-.22.141-.217.154-.224.162-.218.181-.31.252-.298.248-.3.247-.283.248-.282.23-.266.234-.267.216-.247.221-.25.201-.24.198-.237.194-.223.194-.22.18-.206.184-.2.166-.195.17-.395.303-.383.303-.775.597-.768.552-.382.27-.385.267-.38.251-.383.247-.383.24-.383.23-.765.438-.754.412-.38.185-.386.184-.75.345-.752.31-.378.151-.368.142-.382.13-.372.12-.378.117-.368.11-.742.192-.744.17-.158.057-.15.068-.288.158-.28.165-.134.093-.125.101-.125.1-.118.107-.233.235-.107.115-.098.124-.192.275-.102.137-.082.146-.166.306-.082.152-.068.165-.13.35-.118.36-.1.382-.047.192-.037.21-.039.203-.02.223-.155.13-.15.132-.298.256-.308.243-.296.228-.307.213-.046.02-.037.023-.073.056-.15.103-.31.178-.074.04-.079.043-.144.09-.164.072-.152.08-.307.14-.32.125-.312.107-.319.092-.164.04-.042.002-.039.014-.073.027-.32.067-.322.057-.125.361-.074.177-.078.176-.18.35-.11.167-.032.038-.022.047-.052.087-.12.162-.13.171-.133.152-.145.171-.155.15-.082.08-.07.085-.168.154-.174.152-.187.141-.096.071-.094.078-.205.141-.054.034-.048.04-.102.077-.107.065-.06.03-.045.041-.223.142-.12.067-.108.066-.237.142-.51.26-.525.26-.28.114-.282.13-.596.242-.166.125-.139.13-.145.131-.115.145-.119.144-.1.144-.18.303-.143.318-.057.16-.042.176-.043.167-.019.18-.018.178.003.191.374-.207.172-.104.165-.089.31-.207.137-.105.142-.095.125-.103.113-.103.211-.209.01-.018.011-.013.022-.023.048-.053.091-.106.075-.1.073-.104.466-.305.487-.276.502-.257.52-.235.537-.217.565-.193.574-.185.598-.142.61-.146.633-.11.648-.097.671-.063.68-.058.346-.019.353-.005.722-.016.746.016.523-.44.532-.398.528-.382.536-.346.535-.324.538-.298.55-.274.546-.235.544-.219.548-.194.555-.166.561-.127.555-.118.56-.075.571-.062.577-.025.442-.012.451.012.457.025.462.046.461.057.477.078.483.097.486.115.482.122.494.15.5.165.508.176.508.19.514.216.52.237.527.247.38.181.393.201.407.214.428.24.438.235.455.261.468.282.49.293.136.078.148.093.155.09.167.104.347.208.184.114.194.121.192.117.212.13.438.262.228.137.24.148.241.15.257.16.206.116.1.058.106.062.197.12.204.113.187.106.2.103.182.097.196.102.083.04.046.014.046.03.188.087.175.086.084.04.043.017.05.03.034.012.045.018.088.037.173.078.157.072.041.012.041.02.088.04.148.05.076.026.031.012.05.022.144.048.074.03.04.01.041.02.146.038.146.048.132.035.142.041.132.024.128.027.127.02.128.027h.055l.063.003.12.012.115.007h.052l.064.01-.109-.248-.095-.229-.21-.46-.217-.446-.22-.42-.127-.21-.116-.202-.249-.387-.124-.195-.125-.18-.257-.348.333.266.34.283.351.303.34.316.343.33.343.346.345.37.347.38.345.386.35.408.341.418.344.446.35.45.345.473.345.483.353.512.404-.152.415-.129.418-.124.435-.093.432-.098.447-.078.446-.072.467-.044.454-.045.472-.032.475-.02.485.008.49.004.498.021.502.03.522.052.505.055.528.07.525.083.54.097.546.1.552.126.557.134.568.148.565.15.582.172.58.18.593.2.592.2.611.226.612.232.62.252.166.122.2.116.181.097.22.098.205.072.228.07.236.045.252.044.252.02.262.006.28-.006.291-.006.293-.03.314-.044.315-.054.333-.06-.07-.26-.072-.247-.1-.245-.106-.24-.129-.24-.136-.229-.159-.219-.166-.216-.192-.219-.197-.204-.223-.206-.23-.194-.25-.2-.26-.187-.284-.187-.296-.178-.437-.03-.442-.039-.453-.044-.43-.054-.453-.062-.446-.07-.119-.028-.11-.019-.223-.037-.444-.086-.456-.103-.06-.018-.055-.014-.112-.025-.223-.055-.458-.118-.229-.067-.223-.057-.232-.07-.228-.064-.452-.142-.47-.154-.455-.162-.423.037-.42.034-.425.017-.418.014-.417-.003-.416-.017-.418-.018-.407-.029.536-.21.542-.209.532-.209.538-.206.517-.227.524-.218.511-.236.521-.224.5-.242.502-.244.497-.25.5-.242.114-.072.127-.067.245-.127.49-.26.486-.27.477-.263.466-.285.462-.276.114-.075.12-.074.233-.14.462-.284.221-.158.114-.075.116-.07.448-.302.447-.299.442-.302.433-.325.431-.316.428-.322.425-.322.414-.336.416-.334.404-.34.101-.095.105-.079.208-.169.035-.54.012-.264.021-.25.006-.247.013-.236.004-.228.015-.222v-.433l-.004-.208v-.194l-.015-.187-.005-.183-.026-.337-.025-.166-.017-.154-.025-.152-.02-.133-.03-.136-.025-.122-.06-.234-.04-.11-.043-.095-.084-.178-.048-.086-.047-.064-.054-.064-.049-.054-.112-.054-.435.176-.433.156-.427.134-.412.116-.414.086-.402.066-.402.036-.392.026-.385-.009-.383-.03-.378-.052-.363-.068-.362-.107-.353-.113-.352-.143-.34-.166-.343-.196-.34-.216-.325-.237-.316-.26-.314-.29-.307-.312-.3-.336-.294-.347-.296-.387-.283-.402-.277-.42-.265-.448-.263-.475-.257-.49-.252-.515-.243-.546.031-.302.026-.145.037-.14.092-.26.13-.257.145-.237.08-.115.094-.104.1-.109.11-.098.231-.184-.167.02-.157.05-.164.073-.158.098-.16.12-.16.145-.155.167-.152.192-.048-.359-.067-.327-.04-.159-.045-.15-.052-.149-.048-.136-.066-.143-.055-.127-.074-.125-.07-.119-.16-.226-.092-.105-.088-.088.041.213.038.226.01.114.006.13.024.268-.005.127v.14l-.019.292-.029.302-.029.327-.344-.31-.339-.287-.33-.279-.319-.249-.323-.246-.313-.23-.309-.203-.302-.187-.304-.18-.297-.163-.288-.14-.278-.123-.284-.107-.272-.093-.272-.078-.259-.057.23.352.244.384.261.381.277.4.292.398.301.42.316.423.34.445-.227-.076-.21-.078-.41-.18-.202-.103-.2-.112-.388-.23-.375-.27-.186-.144-.182-.148-.352-.324-.164-.162-.16-.176-.329-.387-.158-.202-.152-.2-.3-.44-.144-.224-.133-.233-.148-.245-.135-.25-.245-.518-.133-.276-.115-.275-.23-.572-.237.034-.218.046-.216.05-.197.072-.207.066-.187.084-.173.09-.167.103-.163.104-.147.117-.149.118-.13.138-.13.132-.119.161-.11.153-.093.173-.1.17-.082.18-.07.188-.06.206-.064.197-.043.217-.043.227-.025.24-.034.237-.009.254-.005.26.011.268.003.273.03.282.03.292.042.306-.16-.243-.139-.248-.134-.252-.105-.245-.104-.257-.082-.259-.067-.26-.048-.259-.044-.28-.027-.27-.007-.14v-.136l.005-.276.017-.29.028-.295.05-.294.074-.289-.338-.073-.326-.055-.339-.054-.333-.034-.35-.036-.342-.019-.362-.012-.349.003H42.68l-.13.01-.129-.01h-.452l-.262-.03-.249-.046-.247-.057-.236-.072-.232-.088-.223-.097-.216-.12-.21-.12-.257-.183-.26-.206-.136-.115-.13-.114-.136-.126-.129-.127-.142-.144-.138-.144-.14-.159-.136-.15-.147-.17-.074-.09L38.23.4 38.2.36 37.915 0zM15.788 26.54l-.054.11-.045.118-.053.238-.02.114.006.132.03.249-.234.014-.234.039-.235.059-.223.08-.232.093-.226.117-.22.136-.221.153-.057.032-.055.045-.136.112-.08.058-.081.069-.093.079-.091.09-.107.084-.102.096-.238.213-.13.109-.13.123-.135.128-.132.144-.274.222-.261.228-.256.208-.26.198-.257.174-.263.174-.257.15-.248.148-.26.122-.244.11-.253.095-.25.09-.245.072-.248.058-.247.045-.24.033.012-.257.043-.254.025-.134.039-.128.043-.137.054-.13.05-.14.059-.135.139-.272.158-.285.184-.283.2-.296.237-.297.244-.31.138-.153.147-.148.296-.322.154-.16.166-.157.17-.168.177-.162.178-.167.192-.16.21.044.212.03.205.009.223-.01.212-.03.22-.053.224-.07.223-.082.166.037.17.04.175.027.173.018.172.007h.175l.344-.025.346-.067.344-.088.347-.13.173-.077.172-.085zm53.554.595l.102.205.117.213.116.201.138.207.134.187.145.192.153.183.167.184.158.17.18.173.176.16.197.16.198.15.213.153.21.144.227.143-.032.025-.022.033-.053.065-.028.025-.026.032-.051.064-.06.051-.03.027-.026.033-.116.101-.135.092-.135.09-.142.077-.152.076-.156.06-.167.051-.175.046-.178.037-.195.026-.19.025-.203.016-.2.01-.16-.148-.14-.14-.27-.296-.26-.31-.223-.316-.122-.17-.105-.159-.192-.335-.177-.349-.083-.18-.067-.176-.413-.005h-.403l-.388-.013-.362-.013-.364-.028-.355-.026-.34-.037-.318-.039-.321-.05-.303-.052-.293-.065-.275-.065-.273-.078-.253-.076-.24-.084-.23-.084 1.268-.534.278.025.29.026.298.02.31.018.31.007.325.011h.334l.35.006.337-.012.358-.005.362-.02.378-.01.379-.035.387-.025.396-.033.41-.032zM30.747 16.18l.366.012.359.022.363.036.343.032.344.06.34.056.339.086.33.08.325.105.319.11.319.121.312.127.31.147.296.147.303.17.29.173.289.185.29.203.279.21.27.215.275.236.259.24.263.26.256.26.248.28.25.29.246.302 3.406 5.598-.137-.009-.034-.002h-.091l-.144-.018-.135-.01-.147-.027-.144-.026-.144-.033-.153-.029-.155-.049-.167-.043-.166-.05-.16-.048-.172-.064-.171-.055-.097-.04-.084-.034-.17-.065-.1-.045-.091-.035-.187-.083-.192-.085-.096-.046-.091-.04-.21-.1-.194-.098-.203-.106-.197-.1-.117-.066-.053-.033-.048-.026-.21-.113-.226-.125-.106-.066-.06-.033-.046-.023-.061-.04-.057-.032-.113-.065-.22-.135-.238-.14-.225-.143-.476-.298-.461-.275-.466-.27-.45-.254-.45-.25-.444-.227-.87-.419-.432-.2-.431-.184-.417-.179-.412-.15-.405-.153-.404-.132-.784-.227-.365-.096-.364-.086-.37-.08-.363-.063-.374-.065-.374-.055-.378-.043-.382-.03-.383-.034-.388-.023-.392-.01h-.791l-.396.01-.407.023-.401.034.17-.132.187-.116.378-.207.188-.104.207-.082.203-.084.218-.074.207-.069.222-.059.453-.102.228-.044.237-.033.49-.047-.153-.14-.15-.132-.152-.12-.15-.1-.162-.115-.151-.088-.31-.154-.165-.072-.161-.058-.166-.053L25 17.61l-.333-.056-.333-.013.407-.125.408-.095.407-.099.42-.068.414-.072.418-.046.42-.03.424-.019.42-.02.43.005.855.046.425.034.438.057.429.071.447.082-.091-.094-.084-.086-.195-.163-.122-.077-.116-.064-.258-.119-.146-.065-.154-.053-.32-.097-.178-.046-.177-.03-.383-.057.383-.053.384-.034.365-.032.382-.006.36-.006zM8.556 12.692l.633.003.662.054h.055l.085.014.113.012.135.02.162.018.183.034.213.03.24.047.259.039.283.045.31.05.338.057.357.059.39.065.407.07.447.078.122.014.06.004.069.015.252.037.243.029.245.029.232.019.239.02.222.012.222.014h.419l.197-.004.197-.01.184-.016.186-.02.179-.025.18-.03-.216.177-.19.187-.181.193-.166.199-.154.202-.14.21-.133.219-.115.228-.103.227-.093.23-.084.24-.06.252-.057.243-.041.259-.031.263-.008.278-.241-.24-.232-.217-.473-.41-.244-.183-.235-.174-.232-.163-.236-.148-.484-.275-.236-.125-.24-.102-.245-.096-.234-.087-.48-.135-.493-.097-.247-.033-.244-.017-.49-.006-.496.044-.253.033-.248.046-.247.056-.248.07-.503.176-.495.228-.248.289-.234.277-.121.128-.122.13-.232.25-.245.226-.235.22-.235.2-.234.193-.246.159-.237.163-.246.135-.235.13-.246.103-.236.095-.122.034-.12.038-.233.07-.25.04-.242.033-.248.007-.235.006-.248-.021-.122-.012-.118-.013-.246-.052-.233-.058-.25-.083-.246-.09-.247-.11-.122-.065-.063-.032-.054-.025-.248-.141-.246-.152-.248-.17L0 16.947l.39-.04.396-.058.394-.082.409-.103.406-.137.414-.155.413-.18.424-.202-.237-.07-.125-.025-.124-.012-.138-.014h-.278l-.132.014-.311.032-.16.024-.152.039-.173.04-.168.05-.18.054-.172.063.459-.485.478-.434.488-.41.512-.364.512-.344.529-.296.535-.266.559-.225.566-.204.279-.092.3-.068.584-.13.61-.092.614-.063.635-.02zm.913.449l-.438.008-.438.019-.426.03-.43.04-.41.06-.406.069-.395.084-.396.099-.384.107-.375.122-.365.145-.366.147-.351.16-.345.173-.334.203-.334.198-.32.227-.315.234-.302.25.31-.096.148-.04.142-.026.128-.033.126-.02.115-.011.113-.006.099-.012h.09l.176.018.134.03.063.029.054.036-.006.059-.02.064-.028.072-.04.077-.054.079-.064.082-.076.09-.082.103-.104.098-.11.104-.12.107-.13.124-.147.116-.155.127-.166.13-.18.14h.067l.079.008.143.007h.299l.295-.032.296-.05.286-.086.294-.102.144-.065.15-.063.293-.157.285-.18.142-.102.149-.103.282-.233.297-.257.283-.285.14-.155.15-.146.282-.338.299-.346.254-.1.259-.076.518-.141.253-.064.26-.046.517-.078.509-.058.517-.024.505.005.517.04.509.055.503.093.508.117.506.153.494.175.505.205.247.11.254.13.506.27.597-.678-.547-.178-.54-.163-.53-.147-.518-.136-.52-.123-.497-.104-.5-.095-.482-.071-.487-.071-.476-.053-.47-.045-.457-.017-.455-.016zm49.57-.178l-.218.457.111.09.111.096.2.195.097.09.005.005.008.015.029.024.047.05.08.092.09.097.032.038.033.046.075.09.019.04.014.016.02.028.058.088.102.17.035.084.04.088.565.332-.401.123-.193.05-.174.058-.357.091-.167.036-.152.045-.162.027-.15.033-.148.018-.132.025-.261.03-.128.006-.113.005-.116-.005-.104-.007-.193-.029-.177-.043-.082-.033-.064-.027-.078-.045-.062-.036-.102-.09-.053-.06-.034-.049-.038-.068-.023-.055.148-.614-.1-.013h-.097l-.184.02-.182.036-.188.067-.194.078-.188.116-.197.127-.186.166.076-.198.107-.188.127-.17.074-.086.087-.07.186-.15.217-.12.238-.123.273-.098-.09-.047-.102-.016-.102-.009-.114.01h-.07l-.06.013-.135.03-.14.045-.16.057.33-.232.35-.199.167-.096.188-.083.375-.143.389-.13.408-.096.203-.045L58.6 13l.438-.037zM50.51 3.19l.14.41.152.403.163.395.167.38.178.356.187.353.201.337.213.33.212.301.227.295.228.28.25.276.245.25.263.248.276.223.283.227-.344.246-.309.265-.285.27-.255.29-.235.29-.196.31-.173.307-.15.33.051-.2.051-.186.085-.354.048-.342.02-.163.017-.147v-.298l-.012-.265-.025-.128-.023-.114-.062-.214-.155-.31-.17-.299-.2-.289-.22-.275-.246-.277-.275-.267-.295-.264-.306-.246-.064-.405-.032-.379-.005-.369.005-.18.02-.168.017-.174.03-.159.074-.316.102-.303.132-.28zM55.303.648l.023.222.045.23.048.228.064.234.063.22.076.223.195.439.215.425.254.427.289.413.152.197.178.209.003.026.008.033.029.064.005.026.014.03.017.068v.018l.008.024.01.053v.017l.007.028.015.054-.007.01v.057l-.008.027-.007.013v.017l-.01.01-.008.01-.012.02-.02.013-.01.019-.426-.354-.422-.318-.418-.287-.406-.253-.41-.232-.4-.193-.403-.17-.39-.127.01-.207.03-.194.04-.186.053-.167.05-.173.086-.153.082-.152.1-.135.106-.135.115-.123.134-.116.148-.104.149-.103.167-.082.175-.08.194-.06z"
      fill-rule="evenodd"></path>
  </symbol>
</svg>
